<svg width="1440" height="1149" viewBox="0 0 1440 1149" fill="none" xmlns="http://www.w3.org/2000/svg">
<path d="M720 -212.5C1071.87 -212.5 1357.5 73.598 1357.5 427C1357.5 780.402 1071.87 1066.5 720 1066.5C368.134 1066.5 82.5 780.402 82.5 427C82.5 73.598 368.134 -212.5 720 -212.5Z" stroke="url(#paint0_linear_72_362)" stroke-opacity="0.25" stroke-width="165"/>
<path d="M1140 493.5C1140 438.279 1129.12 383.599 1107.99 332.582C1086.86 281.564 1055.89 235.209 1016.84 196.162C977.791 157.115 931.436 126.141 880.418 105.009C829.401 83.8765 774.721 73 719.5 73C664.279 73 609.599 83.8766 558.582 105.009C507.564 126.141 461.209 157.115 422.162 196.162C383.115 235.209 352.141 281.564 331.009 332.582C309.877 383.599 299 438.279 299 493.5H412.277C412.277 453.155 420.224 413.205 435.663 375.931C451.102 338.657 473.732 304.789 502.261 276.261C530.789 247.732 564.657 225.102 601.931 209.663C639.205 194.224 679.155 186.277 719.5 186.277C759.845 186.277 799.795 194.224 837.069 209.663C874.343 225.102 908.211 247.732 936.739 276.261C965.268 304.789 987.898 338.657 1003.34 375.931C1018.78 413.205 1026.72 453.155 1026.72 493.5H1140Z" fill="url(#paint1_linear_72_362)" fill-opacity="0.25"/>
<defs>
<linearGradient id="paint0_linear_72_362" x1="720" y1="-295" x2="720" y2="1149" gradientUnits="userSpaceOnUse">
<stop stop-color="#B5DDFF" stop-opacity="0.7"/>
<stop offset="1" stop-color="white" stop-opacity="0"/>
</linearGradient>
<linearGradient id="paint1_linear_72_362" x1="719.5" y1="73" x2="719.5" y2="914" gradientUnits="userSpaceOnUse">
<stop stop-color="#DBEEFF" stop-opacity="0.8"/>
<stop offset="1" stop-color="white" stop-opacity="0"/>
</linearGradient>
</defs>
</svg>
