<svg width="171" height="46" viewBox="0 0 171 46" fill="none" xmlns="http://www.w3.org/2000/svg">
<path d="M43.279 30.9412L39.1239 26.7748L35.3429 30.5663L38.1797 33.4109C38.9179 32.9975 39.8677 33.1036 40.4951 33.7328C41.2523 34.4921 41.2523 35.7233 40.4951 36.4827C39.7378 37.242 38.51 37.242 37.7528 36.4827C37.1254 35.8535 37.0195 34.9012 37.4318 34.1609L34.595 31.3162L30.814 35.1077L34.969 39.2742C37.2637 41.5753 40.9842 41.5753 43.279 39.2742C45.5737 36.973 45.5737 33.2422 43.279 30.9412Z" fill="#6FBCFF"/>
<path d="M26.6511 30.9412L22.4961 26.7748L18.715 30.5663L21.5518 33.4109C22.29 32.9975 23.2398 33.1036 23.8672 33.7328C24.6245 34.4921 24.6245 35.7233 23.8672 36.4827C23.11 37.242 21.8822 37.242 21.1249 36.4827C20.4975 35.8535 20.3916 34.9012 20.8039 34.1609L17.9671 31.3162L14.186 35.1077L18.341 39.2742C20.6358 41.5753 24.3563 41.5753 26.651 39.2742C28.9458 36.973 28.9458 33.2422 26.6511 30.9412Z" fill="#0071BC"/>
<path d="M10.4051 31.3162L7.56825 34.1608C7.98058 34.901 7.87471 35.8534 7.24725 36.4826C6.48998 37.242 5.26224 37.242 4.50497 36.4826C3.7477 35.7233 3.7477 34.4921 4.50497 33.7327C5.13243 33.1035 6.08216 32.9974 6.82033 33.4109L9.65711 30.5662L5.87608 26.7747L1.72103 30.9412C-0.573677 33.2422 -0.573677 36.973 1.72103 39.2741C4.01574 41.5752 7.73631 41.5752 10.0311 39.2741L14.1861 35.1076L10.4051 31.3162Z" fill="#6FBCFF"/>
<path d="M39.1239 26.7747L30.8139 35.1076L22.5039 26.7747C27.0934 22.1726 34.5344 22.1726 39.1239 26.7747Z" fill="#B5DDFF"/>
<path d="M22.4961 26.7747L14.1861 35.1076L5.8761 26.7747C10.4656 22.1726 17.9066 22.1726 22.4961 26.7747Z" fill="#B5DDFF"/>
<path d="M22.4961 20.8484C26.5851 20.8484 29.8999 17.5245 29.8999 13.4242C29.8999 9.32393 26.5851 6 22.4961 6C18.4071 6 15.0923 9.32393 15.0923 13.4242C15.0923 17.5245 18.4071 20.8484 22.4961 20.8484Z" fill="#6FBCFF"/>
<path d="M58.234 19.472L60.654 23.08L60.83 23.476L61.05 23.08L63.448 19.472H66.55L62.546 25.214L66.616 31H63.514L61.028 27.414L60.83 27.04L60.654 27.414L58.19 31H55.088L59.158 25.28L55.154 19.472H58.234ZM75.3775 31.22C74.4828 31.22 73.6908 31.022 73.0015 30.626C72.3268 30.2153 71.7988 29.6653 71.4175 28.976V35.686H68.4695V19.472H71.0435V21.452C71.4835 20.7773 72.0408 20.2493 72.7155 19.868C73.3902 19.472 74.1602 19.274 75.0255 19.274C75.8028 19.274 76.5142 19.428 77.1595 19.736C77.8195 20.044 78.3915 20.4767 78.8755 21.034C79.3595 21.5767 79.7335 22.2073 79.9975 22.926C80.2762 23.63 80.4155 24.3927 80.4155 25.214C80.4155 26.3287 80.1955 27.3407 79.7555 28.25C79.3302 29.1593 78.7362 29.8853 77.9735 30.428C77.2255 30.956 76.3602 31.22 75.3775 31.22ZM74.3875 28.712C74.8422 28.712 75.2528 28.6167 75.6195 28.426C75.9862 28.2353 76.3015 27.9787 76.5655 27.656C76.8442 27.3187 77.0495 26.9447 77.1815 26.534C77.3282 26.1087 77.4015 25.6687 77.4015 25.214C77.4015 24.73 77.3208 24.2827 77.1595 23.872C77.0128 23.4613 76.7928 23.102 76.4995 22.794C76.2062 22.4713 75.8615 22.222 75.4655 22.046C75.0842 21.87 74.6662 21.782 74.2115 21.782C73.9328 21.782 73.6468 21.8333 73.3535 21.936C73.0748 22.024 72.8035 22.156 72.5395 22.332C72.2755 22.508 72.0408 22.7133 71.8355 22.948C71.6448 23.1827 71.5055 23.4393 71.4175 23.718V26.424C71.5935 26.8493 71.8282 27.238 72.1215 27.59C72.4295 27.942 72.7815 28.2207 73.1775 28.426C73.5735 28.6167 73.9768 28.712 74.3875 28.712ZM88.1989 31.22C87.2749 31.22 86.4389 31.066 85.6909 30.758C84.9429 30.4353 84.3049 30.0027 83.7769 29.46C83.2489 28.9027 82.8382 28.272 82.5449 27.568C82.2662 26.8493 82.1269 26.094 82.1269 25.302C82.1269 24.202 82.3689 23.1973 82.8529 22.288C83.3515 21.3787 84.0555 20.6527 84.9649 20.11C85.8889 19.5527 86.9742 19.274 88.2209 19.274C89.4822 19.274 90.5602 19.5527 91.4549 20.11C92.3495 20.6527 93.0315 21.3787 93.5009 22.288C93.9849 23.1827 94.2269 24.1507 94.2269 25.192C94.2269 25.368 94.2195 25.5513 94.2049 25.742C94.1902 25.918 94.1755 26.0647 94.1609 26.182H85.2509C85.3095 26.7687 85.4782 27.282 85.7569 27.722C86.0502 28.162 86.4169 28.4993 86.8569 28.734C87.3115 28.954 87.7955 29.064 88.3089 29.064C88.8955 29.064 89.4455 28.9247 89.9589 28.646C90.4869 28.3527 90.8462 27.9713 91.0369 27.502L93.5669 28.206C93.2882 28.7927 92.8849 29.3133 92.3569 29.768C91.8435 30.2227 91.2349 30.582 90.5309 30.846C89.8269 31.0953 89.0495 31.22 88.1989 31.22ZM85.1849 24.312H91.2129C91.1542 23.7253 90.9855 23.2193 90.7069 22.794C90.4429 22.354 90.0909 22.0167 89.6509 21.782C89.2109 21.5327 88.7195 21.408 88.1769 21.408C87.6489 21.408 87.1649 21.5327 86.7249 21.782C86.2995 22.0167 85.9475 22.354 85.6689 22.794C85.4049 23.2193 85.2435 23.7253 85.1849 24.312ZM103.327 22.024C102.432 22.024 101.633 22.2 100.929 22.552C100.225 22.8893 99.7188 23.3807 99.4108 24.026V31H96.4628V19.472H99.1688V21.936C99.5794 21.144 100.1 20.5207 100.731 20.066C101.361 19.6113 102.029 19.362 102.733 19.318C102.894 19.318 103.019 19.318 103.107 19.318C103.195 19.318 103.268 19.3253 103.327 19.34V22.024ZM112.319 30.406C112.069 30.5087 111.769 30.626 111.417 30.758C111.065 30.89 110.683 30.9927 110.273 31.066C109.877 31.154 109.473 31.198 109.063 31.198C108.52 31.198 108.021 31.1027 107.567 30.912C107.112 30.7213 106.745 30.4207 106.467 30.01C106.203 29.5847 106.071 29.0347 106.071 28.36V21.738H104.553V19.472H106.071V15.732H109.019V19.472H111.439V21.738H109.019V27.37C109.033 27.766 109.143 28.052 109.349 28.228C109.554 28.404 109.811 28.492 110.119 28.492C110.427 28.492 110.727 28.4407 111.021 28.338C111.314 28.2353 111.549 28.1473 111.725 28.074L112.319 30.406ZM118.54 31.22C117.557 31.22 116.619 31.0587 115.724 30.736C114.829 30.4133 114.059 29.9367 113.414 29.306L114.47 27.392C115.159 27.9493 115.834 28.36 116.494 28.624C117.169 28.888 117.814 29.02 118.43 29.02C119.002 29.02 119.457 28.9173 119.794 28.712C120.146 28.5067 120.322 28.1987 120.322 27.788C120.322 27.5093 120.227 27.2967 120.036 27.15C119.845 26.9887 119.567 26.8493 119.2 26.732C118.848 26.6147 118.415 26.4827 117.902 26.336C117.051 26.0573 116.34 25.786 115.768 25.522C115.196 25.258 114.763 24.928 114.47 24.532C114.191 24.1213 114.052 23.6007 114.052 22.97C114.052 22.2073 114.243 21.5547 114.624 21.012C115.02 20.4547 115.563 20.022 116.252 19.714C116.956 19.406 117.777 19.252 118.716 19.252C119.537 19.252 120.315 19.384 121.048 19.648C121.781 19.8973 122.449 20.308 123.05 20.88L121.862 22.75C121.275 22.2953 120.718 21.9653 120.19 21.76C119.662 21.54 119.127 21.43 118.584 21.43C118.276 21.43 117.983 21.4667 117.704 21.54C117.44 21.6133 117.22 21.738 117.044 21.914C116.883 22.0753 116.802 22.31 116.802 22.618C116.802 22.8967 116.875 23.1167 117.022 23.278C117.183 23.4247 117.418 23.5567 117.726 23.674C118.049 23.7913 118.437 23.9233 118.892 24.07C119.816 24.334 120.593 24.6053 121.224 24.884C121.869 25.1627 122.353 25.5073 122.676 25.918C122.999 26.314 123.16 26.864 123.16 27.568C123.16 28.712 122.742 29.6067 121.906 30.252C121.07 30.8973 119.948 31.22 118.54 31.22ZM130.885 31.22C130.049 31.22 129.279 31.066 128.575 30.758C127.886 30.4353 127.277 29.9953 126.749 29.438C126.236 28.8807 125.832 28.2427 125.539 27.524C125.26 26.8053 125.121 26.0427 125.121 25.236C125.121 24.1507 125.363 23.1607 125.847 22.266C126.331 21.3713 127.006 20.66 127.871 20.132C128.736 19.604 129.734 19.34 130.863 19.34C131.934 19.34 132.88 19.5893 133.701 20.088C134.522 20.572 135.131 21.232 135.527 22.068L134.075 22.53C133.752 21.9433 133.298 21.4887 132.711 21.166C132.139 20.8287 131.501 20.66 130.797 20.66C130.034 20.66 129.338 20.858 128.707 21.254C128.076 21.65 127.57 22.1927 127.189 22.882C126.822 23.5713 126.639 24.356 126.639 25.236C126.639 26.1013 126.83 26.886 127.211 27.59C127.592 28.294 128.098 28.8587 128.729 29.284C129.36 29.6947 130.056 29.9 130.819 29.9C131.318 29.9 131.794 29.812 132.249 29.636C132.718 29.46 133.122 29.2253 133.459 28.932C133.811 28.624 134.046 28.294 134.163 27.942L135.637 28.382C135.432 28.9247 135.087 29.416 134.603 29.856C134.134 30.2813 133.576 30.6187 132.931 30.868C132.3 31.1027 131.618 31.22 130.885 31.22ZM138.493 14.94H139.989V28.404C139.989 28.976 140.092 29.35 140.297 29.526C140.503 29.702 140.752 29.79 141.045 29.79C141.309 29.79 141.573 29.7607 141.837 29.702C142.101 29.6433 142.329 29.5847 142.519 29.526L142.783 30.736C142.505 30.8533 142.16 30.9487 141.749 31.022C141.353 31.0953 141.009 31.132 140.715 31.132C140.041 31.132 139.498 30.934 139.087 30.538C138.691 30.142 138.493 29.5993 138.493 28.91V14.94ZM144.751 26.27V19.538H146.247V26.006C146.247 27.3113 146.467 28.2867 146.907 28.932C147.362 29.5773 148.029 29.9 148.909 29.9C149.496 29.9 150.061 29.7753 150.603 29.526C151.161 29.262 151.652 28.8953 152.077 28.426C152.503 27.942 152.825 27.3847 153.045 26.754V19.538H154.541V29.196C154.541 29.4013 154.585 29.5553 154.673 29.658C154.761 29.746 154.893 29.7973 155.069 29.812V31C154.893 31.0147 154.754 31.022 154.651 31.022C154.549 31.0367 154.453 31.044 154.365 31.044C154.072 31.0147 153.815 30.8973 153.595 30.692C153.39 30.4867 153.28 30.2373 153.265 29.944L153.221 28.404C152.723 29.284 152.041 29.9733 151.175 30.472C150.325 30.9707 149.401 31.22 148.403 31.22C147.201 31.22 146.291 30.802 145.675 29.966C145.059 29.13 144.751 27.898 144.751 26.27ZM163.974 31.22C163.079 31.22 162.251 30.9927 161.488 30.538C160.725 30.0687 160.131 29.482 159.706 28.778V31H158.364V14.94H159.86V21.936C160.373 21.1587 160.989 20.5353 161.708 20.066C162.427 19.582 163.263 19.34 164.216 19.34C165.023 19.34 165.741 19.5087 166.372 19.846C167.017 20.1833 167.567 20.638 168.022 21.21C168.477 21.7673 168.821 22.4053 169.056 23.124C169.291 23.828 169.408 24.554 169.408 25.302C169.408 26.1087 169.269 26.864 168.99 27.568C168.726 28.272 168.345 28.9027 167.846 29.46C167.347 30.0027 166.768 30.4353 166.108 30.758C165.463 31.066 164.751 31.22 163.974 31.22ZM163.622 29.9C164.238 29.9 164.81 29.7753 165.338 29.526C165.866 29.2767 166.321 28.932 166.702 28.492C167.083 28.052 167.377 27.5607 167.582 27.018C167.787 26.4607 167.89 25.8887 167.89 25.302C167.89 24.4953 167.714 23.74 167.362 23.036C167.025 22.3173 166.548 21.7453 165.932 21.32C165.331 20.88 164.619 20.66 163.798 20.66C163.211 20.66 162.661 20.792 162.148 21.056C161.649 21.32 161.202 21.672 160.806 22.112C160.425 22.5373 160.109 23.0067 159.86 23.52V27.084C159.919 27.48 160.073 27.854 160.322 28.206C160.571 28.5433 160.879 28.8367 161.246 29.086C161.627 29.3353 162.023 29.5333 162.434 29.68C162.845 29.8267 163.241 29.9 163.622 29.9Z" fill="black"/>
</svg>
