<svg width="28" height="28" viewBox="0 0 28 28" fill="none" xmlns="http://www.w3.org/2000/svg">
<path fill-rule="evenodd" clip-rule="evenodd" d="M6.22222 0H21.7778C25.2142 0 28 2.78578 28 6.22222V21.7778C28 25.2142 25.2142 28 21.7778 28H6.22222C2.78578 28 0 25.2142 0 21.7778V6.22222C0 2.78578 2.78578 0 6.22222 0ZM16.7222 8.09987C16.7222 6.02109 14.2089 4.98003 12.739 6.44995L10.1778 9.01109C9.57035 9.61857 9.57035 10.6035 10.1778 11.211C10.7853 11.8185 11.7702 11.8185 12.3777 11.211L13.6111 9.97759V21.7777C13.6111 22.6368 14.3076 23.3333 15.1667 23.3333C16.0258 23.3333 16.7222 22.6368 16.7222 21.7777V8.09987Z" fill="#0071BC"/>
</svg>
