<svg width="28" height="28" viewBox="0 0 28 28" fill="none" xmlns="http://www.w3.org/2000/svg">
<path fill-rule="evenodd" clip-rule="evenodd" d="M6.22222 0H21.7778C25.2142 0 28 2.78578 28 6.22222V21.7778C28 25.2142 25.2142 28 21.7778 28H6.22222C2.78578 28 0 25.2142 0 21.7778V6.22222C0 2.78578 2.78578 0 6.22222 0ZM11.2895 9.56167C11.5557 8.61913 12.5636 7.77778 13.9253 7.77778C15.562 7.77778 16.637 8.95521 16.637 10.1111C16.637 11.267 15.562 12.4444 13.9253 12.4444C13.0662 12.4444 12.3698 13.1409 12.3698 14C12.3698 14.8591 13.0662 15.5556 13.9253 15.5556C15.9873 15.5556 17.1111 16.8743 17.1111 17.8889C17.1111 18.9034 15.9873 20.2222 13.9253 20.2222C12.2327 20.2222 11.0955 19.281 10.8175 18.3954C10.5603 17.5757 9.68729 17.1197 8.86759 17.3769C8.04789 17.6341 7.59192 18.5072 7.84914 19.3269C8.6239 21.7958 11.1993 23.3333 13.9253 23.3333C17.1005 23.3333 20.2222 21.1699 20.2222 17.8889C20.2222 16.1996 19.3947 14.8066 18.1584 13.8525C19.1328 12.8964 19.7481 11.5973 19.7481 10.1111C19.7481 6.97147 17.0021 4.66667 13.9253 4.66667C11.3103 4.66667 8.97675 6.30403 8.29553 8.7161C8.06204 9.54287 8.54298 10.4024 9.36975 10.6359C10.1965 10.8694 11.056 10.3884 11.2895 9.56167Z" fill="#0071BC"/>
</svg>
