<svg width="28" height="28" viewBox="0 0 28 28" fill="none" xmlns="http://www.w3.org/2000/svg">
<path d="M14.4667 11.7256V16.8194H11.337L14.4667 11.7256Z" fill="#0071BC"/>
<path fill-rule="evenodd" clip-rule="evenodd" d="M6.22222 0H21.7778C25.2142 0 28 2.78578 28 6.22222V21.7778C28 25.2142 25.2142 28 21.7778 28H6.22222C2.78578 28 0 25.2142 0 21.7778V6.22222C0 2.78578 2.78578 0 6.22222 0ZM17.5778 6.22222C17.5778 5.52607 17.1152 4.91467 16.4453 4.72532C15.7754 4.53596 15.0613 4.81476 14.6968 5.40791L7.23017 17.5607C6.93526 18.0407 6.92292 18.6426 7.1979 19.1343C7.47288 19.626 7.9922 19.9306 8.55556 19.9306H14.4667V21.7778C14.4667 22.6369 15.1631 23.3333 16.0222 23.3333C16.8813 23.3333 17.5778 22.6369 17.5778 21.7778V19.9306H17.8889C18.748 19.9306 19.4444 19.2341 19.4444 18.375C19.4444 17.5159 18.748 16.8194 17.8889 16.8194H17.5778V6.22222Z" fill="#0071BC"/>
</svg>
