<svg width="28" height="28" viewBox="0 0 28 28" fill="none" xmlns="http://www.w3.org/2000/svg">
<path fill-rule="evenodd" clip-rule="evenodd" d="M6.22222 0H21.7778C25.2142 0 28 2.78578 28 6.22222V21.7778C28 25.2142 25.2142 28 21.7778 28H6.22222C2.78578 28 0 25.2142 0 21.7778V6.22222C0 2.78578 2.78578 0 6.22222 0ZM10.9305 10.818C10.665 9.28398 11.7808 7.77778 14.0246 7.77778C15.8975 7.77778 17.2359 9.39802 17.1017 10.9492C17.0303 11.7743 16.6706 12.3256 16.0302 12.8453C15.4081 13.3501 14.6305 13.7441 13.6543 14.2386C13.4896 14.3221 13.3185 14.4088 13.1423 14.499C12.0147 15.0761 10.6722 15.8054 9.63364 16.9345C8.53557 18.1283 7.84214 19.6901 7.84216 21.7778C7.84217 22.6369 8.53861 23.3333 9.39771 23.3333H18.6515C19.5106 23.3333 20.207 22.6369 20.207 21.7778C20.207 20.9187 19.5106 20.2222 18.6515 20.2222H11.1981C11.3713 19.7435 11.6251 19.365 11.9234 19.0407C12.5476 18.3621 13.4319 17.8457 14.5598 17.2684C14.7043 17.1944 14.8549 17.1186 15.0099 17.0406C15.9644 16.5599 17.0861 15.995 17.9905 15.2611C19.1286 14.3376 20.0413 13.066 20.2012 11.2174C20.4942 7.83162 17.7041 4.66667 14.0246 4.66667C10.2533 4.66667 7.20497 7.53547 7.86495 11.3486C8.01146 12.1951 8.81648 12.7626 9.66301 12.6161C10.5095 12.4696 11.077 11.6646 10.9305 10.818Z" fill="#0071BC"/>
</svg>
